<svg width="36" height="36" viewBox="0 0 36 36" fill="none" xmlns="http://www.w3.org/2000/svg">
<g clip-path="url(#clip0_0_70)">
<path d="M9.1875 24.975V11.025C9.1875 10.75 9.275 10.525 9.45 10.35C9.65 10.15 9.8875 10.05 10.1625 10.05C10.4375 10.05 10.6625 10.15 10.8375 10.35C11.0375 10.525 11.1375 10.75 11.1375 11.025V24.975C11.1375 25.25 11.0375 25.4875 10.8375 25.6875C10.6625 25.8625 10.4375 25.95 10.1625 25.95C9.8875 25.95 9.65 25.8625 9.45 25.6875C9.275 25.4875 9.1875 25.25 9.1875 24.975ZM24.9375 24.675L16.575 19.0125C16.4 18.8875 16.2625 18.7375 16.1625 18.5625C16.0875 18.3875 16.05 18.2 16.05 18C16.05 17.8 16.0875 17.6125 16.1625 17.4375C16.2625 17.2625 16.4 17.1125 16.575 16.9875L24.9375 11.325C25.0375 11.25 25.1375 11.2 25.2375 11.175C25.3625 11.125 25.4875 11.1 25.6125 11.1C25.9375 11.1 26.2125 11.2125 26.4375 11.4375C26.6875 11.6625 26.8125 11.9625 26.8125 12.3375V23.6625C26.8125 24.0375 26.6875 24.3375 26.4375 24.5625C26.2125 24.7875 25.9375 24.9 25.6125 24.9C25.4875 24.9 25.3625 24.8875 25.2375 24.8625C25.1375 24.8125 25.0375 24.75 24.9375 24.675Z" fill="#F2F2F2"/>
</g>
<defs>
<clipPath id="clip0_0_70">
<rect width="36" height="36" fill="white"/>
</clipPath>
</defs>
</svg>
