<svg width="17" height="19" viewBox="0 0 17 19" fill="none" xmlns="http://www.w3.org/2000/svg">
<path d="M2.525 15.8L3.8 17.1C3.95 17.2333 4.025 17.4 4.025 17.6C4.025 17.8 3.95 17.9833 3.8 18.15C3.65 18.3 3.475 18.3833 3.275 18.4C3.075 18.4 2.89167 18.3167 2.725 18.15L0.25 15.675C0.166667 15.5917 0.1 15.5 0.0500002 15.4C0.0166669 15.2833 2.38419e-07 15.1667 2.38419e-07 15.05C2.38419e-07 14.9333 0.0166669 14.825 0.0500002 14.725C0.1 14.6083 0.166667 14.5083 0.25 14.425L2.725 11.925C2.875 11.775 3.05 11.7083 3.25 11.725C3.46667 11.725 3.65 11.8 3.8 11.95C3.95 12.1 4.025 12.275 4.025 12.475C4.04167 12.675 3.96667 12.85 3.8 13L2.525 14.3H12.975C13.0583 14.3 13.125 14.275 13.175 14.225C13.2417 14.1583 13.275 14.0833 13.275 14V11.05C13.275 10.8333 13.3417 10.6583 13.475 10.525C13.625 10.375 13.8083 10.3 14.025 10.3C14.2417 10.3 14.4167 10.375 14.55 10.525C14.7 10.6583 14.775 10.8333 14.775 11.05V14C14.775 14.4833 14.6 14.9083 14.25 15.275C13.9 15.625 13.475 15.8 12.975 15.8H2.525ZM13.725 4.10001H3.275C3.19167 4.10001 3.11667 4.13334 3.05 4.20001C3 4.25001 2.975 4.31668 2.975 4.40001V7.35001C2.975 7.56668 2.9 7.75001 2.75 7.90001C2.61667 8.03335 2.44167 8.10001 2.225 8.10001C2.00833 8.10001 1.825 8.03335 1.675 7.90001C1.54167 7.75001 1.475 7.56668 1.475 7.35001V4.40001C1.475 3.91668 1.65 3.50001 2 3.15001C2.35 2.78334 2.775 2.60001 3.275 2.60001H13.725L12.45 1.30001C12.3 1.16668 12.225 1.00001 12.225 0.800012C12.225 0.600011 12.3 0.416677 12.45 0.250011C12.6 0.100011 12.775 0.0250106 12.975 0.0250106C13.175 0.00834417 13.3583 0.0833445 13.525 0.250011L16 2.72501C16.0833 2.80834 16.1417 2.90834 16.175 3.02501C16.225 3.12501 16.25 3.23334 16.25 3.35001C16.25 3.46668 16.225 3.58334 16.175 3.70001C16.1417 3.80001 16.0833 3.89168 16 3.97501L13.525 6.47501C13.375 6.62501 13.1917 6.70001 12.975 6.70001C12.775 6.68335 12.6 6.60001 12.45 6.45001C12.3 6.30001 12.2167 6.12501 12.2 5.92501C12.2 5.72501 12.2833 5.55001 12.45 5.40001L13.725 4.10001Z" fill="#F2F2F2"/>
</svg>
