<svg width="36" height="36" viewBox="0 0 36 36" fill="none" xmlns="http://www.w3.org/2000/svg">
<g clip-path="url(#clip0_0_74)">
<path d="M24.8625 24.975V11.025C24.8625 10.75 24.95 10.525 25.125 10.35C25.325 10.15 25.5625 10.05 25.8375 10.05C26.1125 10.05 26.3375 10.15 26.5125 10.35C26.7125 10.525 26.8125 10.75 26.8125 11.025V24.975C26.8125 25.25 26.7125 25.4875 26.5125 25.6875C26.3375 25.8625 26.1125 25.95 25.8375 25.95C25.5625 25.95 25.325 25.8625 25.125 25.6875C24.95 25.4875 24.8625 25.25 24.8625 24.975ZM9.1875 23.6625V12.3375C9.1875 11.9625 9.3 11.6625 9.525 11.4375C9.775 11.2125 10.0625 11.1 10.3875 11.1C10.5125 11.1 10.625 11.125 10.725 11.175C10.85 11.2 10.9625 11.25 11.0625 11.325L19.425 16.9875C19.6 17.1125 19.725 17.2625 19.8 17.4375C19.9 17.6125 19.95 17.8 19.95 18C19.95 18.2 19.9 18.3875 19.8 18.5625C19.725 18.7375 19.6 18.8875 19.425 19.0125L11.0625 24.675C10.9625 24.75 10.85 24.8125 10.725 24.8625C10.625 24.8875 10.5125 24.9 10.3875 24.9C10.0625 24.9 9.775 24.7875 9.525 24.5625C9.3 24.3375 9.1875 24.0375 9.1875 23.6625Z" fill="#F2F2F2"/>
</g>
<defs>
<clipPath id="clip0_0_74">
<rect width="36" height="36" fill="white"/>
</clipPath>
</defs>
</svg>
